Coordinates
version=1
nRows=10
nColumns=46
inDegrees=yes

Units are S.I. units (second, meters, Newtons, ...)
Angles are in degrees.

endheader
time	pelvis_tilt	pelvis_list	pelvis_rotation	pelvis_tx	pelvis_ty	pelvis_tz	bb_angle	bb_tx	bb_ty	bb_tz	hip_flexion_r	hip_adduction_r	hip_rotation_r	knee_angle_r	knee_angle_r_beta	ankle_angle_r	subtalar_angle_r	mtp_angle_r	crank_angle_r	hip_flexion_l	hip_adduction_l	hip_rotation_l	knee_angle_l	knee_angle_l_beta	ankle_angle_l	subtalar_angle_l	mtp_angle_l	crank_angle_l	lumbar_extension	lumbar_bending	lumbar_rotation	arm_flex_r	arm_add_r	arm_rot_r	elbow_flex_r	pro_sup_r	wrist_flex_r	wrist_dev_r	arm_flex_l	arm_add_l	arm_rot_l	elbow_flex_l	pro_sup_l	wrist_flex_l	wrist_dev_l
      7.50000000	    -33.42950555	      4.98557358	     14.44585067	      0.40321777	      1.05829084	     -0.23287793	      0.00000000	      0.50000000	      0.00000000	      0.25000000	     35.19214878	    -14.03153392	     -1.86478731	     28.51664637	      0.49770937	    -16.43144246	     -6.65346343	      0.00000000	      0.00000000	     87.60887890	      8.09769557	      4.66845774	    110.78335236	      1.93353426	     12.30910261	      2.07054156	      0.00000000	      0.00000000	    -52.85592557	     -3.07060608	    -15.37614816	     26.48548072	    -13.13822696	      8.59834149	     98.56622353	     52.25835058	      0.00000000	      0.00000000	     37.18389787	    -28.19118385	     15.53381766	    108.66799399	     51.33817940	      0.00000000	      0.00000000
      7.50500000	    -33.45712490	      4.70500229	     14.78968262	      0.40307646	      1.05959308	     -0.23358909	      0.00000000	      0.50000000	      0.00000000	      0.25000000	     35.11878872	    -13.93728071	     -2.06992355	     29.70374135	      0.51842809	    -16.53268887	     -6.83937868	      0.00000000	      0.00000000	     87.78253792	      8.26413723	      4.59882191	    109.65807116	      1.91389439	     13.21563135	      1.95577096	      0.00000000	      0.00000000	    -53.07414064	     -2.55459400	    -15.39357573	     26.62492777	    -12.96989489	      8.57482082	     98.56747966	     52.25847299	      0.00000000	      0.00000000	     37.32264987	    -28.18547997	     15.50897907	    108.81781572	     51.35488023	      0.00000000	      0.00000000
      7.51000000	    -33.57261315	      4.39608213	     15.21453898	      0.40257621	      1.06071527	     -0.23465572	      0.00000000	      0.50000000	      0.00000000	      0.25000000	     35.32221783	    -13.94141760	     -2.55171986	     31.28845799	      0.54608661	    -16.33522415	     -7.30799200	      0.00000000	      0.00000000	     87.91267880	      8.51946841	      4.47250919	    108.32094537	      1.89055715	     14.44157801	      1.99572494	      0.00000000	      0.00000000	    -53.24255719	     -1.98232800	    -15.64823800	     27.00163222	    -12.66442302	      8.44953055	     98.67675675	     52.26573988	      0.00000000	      0.00000000	     37.51371392	    -28.16543422	     15.43358898	    109.14589962	     51.39212378	      0.00000000	      0.00000000
      7.51500000	    -33.58248948	      4.08768210	     15.41455262	      0.40251439	      1.06200167	     -0.23526799	      0.00000000	      0.50000000	      0.00000000	      0.25000000	     35.52001933	    -13.76723578	     -2.66483091	     32.93993270	      0.57491028	    -16.12670164	     -7.49919178	      0.00000000	      0.00000000	     87.70072835	      8.58854569	      4.49676529	    106.85647026	      1.86499723	     15.92951109	      2.22951718	      0.00000000	      0.00000000	    -53.56003601	     -1.48705688	    -15.77235221	     27.32151188	    -12.14392392	      8.30527280	     98.72406284	     52.26800375	      0.00000000	      0.00000000	     37.45829791	    -28.37596796	     15.23063367	    109.65296246	     51.44445872	      0.00000000	      0.00000000
      7.52000000	    -33.35377029	      3.73663120	     15.30002700	      0.40297108	      1.06380512	     -0.23486060	      0.00000000	      0.50000000	      0.00000000	      0.25000000	     35.57204159	    -13.21934210	     -2.46450701	     34.56208739	      0.60322222	    -16.29585193	     -7.92448039	      0.00000000	      0.00000000	     86.99961187	      8.19306597	      4.56370774	    105.18617753	      1.83584513	     17.41468934	      2.52884469	      0.00000000	      0.00000000	    -54.11230972	     -1.06770786	    -16.55225319	     28.69002845	    -10.67723756	      9.02344802	     97.52165044	     52.28877312	      0.00000000	      0.00000000	     35.95986879	    -29.57919195	     13.44611616	    111.54111257	     51.46437872	      0.00000000	      0.00000000
      7.52500000	    -33.25576976	      3.30492026	     15.25552242	      0.40296570	      1.06527045	     -0.23519292	      0.00000000	      0.50000000	      0.00000000	      0.25000000	     35.94520186	    -12.77680042	     -2.43026477	     36.45562119	      0.63627062	    -16.50515960	     -8.17302958	      0.00000000	      0.00000000	     86.36925296	      8.02723160	      4.73324654	    103.33349000	      1.80350963	     18.70673987	      2.41482751	      0.00000000	      0.00000000	    -54.44154719	     -0.61375460	    -16.24287985	     29.09018222	    -10.55655299	      8.98277668	     97.62038970	     52.30342247	      0.00000000	      0.00000000	     36.04904474	    -29.57986972	     13.37669745	    111.66676704	     51.47019997	      0.00000000	      0.00000000
      7.53000000	    -33.13308940	      2.88453562	     15.12354517	      0.40301074	      1.06682466	     -0.23543436	      0.00000000	      0.50000000	      0.00000000	      0.25000000	     36.43011783	    -12.32240110	     -2.31130325	     38.50929091	      0.67211392	    -16.74416699	     -8.30703315	      0.00000000	      0.00000000	     85.55945666	      7.73244299	      4.86886981	    101.29542666	      1.76793871	     19.94219826	      2.33391862	      0.00000000	      0.00000000	    -54.81365768	     -0.19288429	    -15.87404550	     29.46917974	    -10.40522535	      8.95201618	     97.70642971	     52.31629914	      0.00000000	      0.00000000	     36.08497903	    -29.57731745	     13.28648402	    111.80827606	     51.47810228	      0.00000000	      0.00000000
      7.53500000	    -33.06899895	      2.53106044	     14.95215163	      0.40308330	      1.06820942	     -0.23573000	      0.00000000	      0.50000000	      0.00000000	      0.25000000	     37.06094268	    -11.92693727	     -2.08073163	     40.69495663	      0.71026098	    -16.80554347	     -8.41963309	      0.00000000	      0.00000000	     84.71047753	      7.39582461	      4.89807885	     99.13815596	      1.73028724	     21.13445833	      2.33243242	      0.00000000	      0.00000000	    -55.09569815	      0.11318818	    -15.55654791	     29.90068975	    -10.25562598	      8.88828252	     97.81148469	     52.30051350	      0.00000000	      0.00000000	     36.10519171	    -29.54177723	     13.11002971	    111.97514627	     51.46096409	      0.00000000	      0.00000000
      7.54000000	    -32.90220642	      2.10958057	     14.61185713	      0.40332767	      1.06969927	     -0.23567219	      0.00000000	      0.50000000	      0.00000000	      0.25000000	     37.71789926	    -11.35074788	     -1.85050072	     42.94635505	      0.74955530	    -17.13316600	     -8.47698450	      0.00000000	      0.00000000	     83.64415002	      6.85109796	      5.01602470	     96.84721029	      1.69030269	     22.09949558	      2.25829721	      0.00000000	      0.00000000	    -55.50257138	      0.42338204	    -15.03549554	     30.25387558	    -10.11359411	      8.88293195	     97.87431687	     52.28602065	      0.00000000	      0.00000000	     36.01886420	    -29.53590471	     12.94670934	    112.08454570	     51.44072733	      0.00000000	      0.00000000
      7.54500000	    -32.74896347	      1.69281379	     14.31773872	      0.40339559	      1.07107929	     -0.23587995	      0.00000000	      0.50000000	      0.00000000	      0.25000000	     38.46421485	    -10.84169213	     -1.69205833	     45.31034492	      0.79081470	    -17.46164070	     -8.56933205	      0.00000000	      0.00000000	     82.57817260	      6.41796477	      5.19085798	     94.45985624	      1.64863550	     22.84775470	      2.12371157	      0.00000000	      0.00000000	    -55.82427900	      0.76885929	    -14.55042322	     30.64104225	    -10.07030314	      8.87283001	     97.96290748	     52.27076512	      0.00000000	      0.00000000	     35.94576391	    -29.48540217	     12.76492111	    112.18541889	     51.41606363	      0.00000000	      0.00000000
